<?xml version="1.0" encoding="UTF-8"?>
<svg version="1.1" viewBox="0 0 120.82 143.4" xmlns="http://www.w3.org/2000/svg" xmlns:xlink="http://www.w3.org/1999/xlink">
  <g transform="translate(8.9738 -33.156)">
    <path d="m4.4712 63.643v38.515c0 1.14 0.572 2.195 1.561 2.764l33.372 19.227c1.416 0.815 3.222-0.206 3.223-1.84v-38.515c1e-3 -1.141-0.608-2.196-1.597-2.765l-33.372-19.226c-1.416-0.815-3.185 0.205-3.187 1.84m102.79-30.074-48.046 27.679c-1.424 0.82-2.301 2.338-2.299 3.982v55.448c3e-3 2.353 2.601 3.823 4.639 2.649l48.047-27.679c1.423-0.82 2.246-2.339 2.245-3.982l1e-3 -55.449c-2e-3 -2.352-2.548-3.822-4.587-2.648m-65.91 117.93-13.352 7.693c-0.396 0.227-0.639 0.649-0.639 1.106l-1e-3 15.409c1e-3 0.655 0.724 1.063 1.291 0.737l13.352-7.693c0.396-0.227 0.625-0.649 0.624-1.106v-15.41c0-0.654-0.708-1.062-1.275-0.736m-7.781-14.219-19.997-11.57c-0.592-0.342-1.323-0.342-1.916 0l-19.996 11.57c-0.848 0.491-0.848 1.716 0 2.207l19.996 11.57c0.593 0.343 1.324 0.343 1.916 0l19.997-11.57c0.848-0.491 0.848-1.716 0-2.207m32.192 2.086 8.884 5.14c0.527 0.305 1.176 0.305 1.703 0l8.884-5.14c0.754-0.437 0.754-1.526 0-1.962l-8.884-5.141c-0.527-0.305-1.176-0.305-1.703 0l-8.884 5.141c-0.754 0.436-0.754 1.525 0 1.962m-7.147 12.372 8.894 5.124c0.527 0.303 0.852 0.866 0.851 1.474l-0.01 10.264c-1e-3 0.872-0.943 1.416-1.699 0.981l-8.893-5.124c-0.528-0.303-0.841-0.867-0.841-1.474l-1e-3 -10.264c0-0.87 0.944-1.416 1.699-0.981" fill="#ff1234"/>
  </g>
</svg>
